<?xml version="1.0" encoding="utf-8"?>
<!-- Generator: Adobe Illustrator 16.0.0, SVG Export Plug-In . SVG Version: 6.00 Build 0)  -->
<!DOCTYPE svg PUBLIC "-//W3C//DTD SVG 1.1//EN" "http://www.w3.org/Graphics/SVG/1.1/DTD/svg11.dtd">
<svg version="1.1"
	 id="svg3004" xmlns:dc="http://purl.org/dc/elements/1.1/" xmlns:cc="http://creativecommons.org/ns#" xmlns:rdf="http://www.w3.org/1999/02/22-rdf-syntax-ns#" xmlns:svg="http://www.w3.org/2000/svg"
	 xmlns="http://www.w3.org/2000/svg" xmlns:xlink="http://www.w3.org/1999/xlink" x="0px" y="0px" width="159px" height="40px"
	 viewBox="0 0 159 40" enable-background="new 0 0 159 40" xml:space="preserve">
<g id="g3012" transform="matrix(1.25,0,0,-1.25,0,39.999922)">
	<g id="g13970" transform="translate(82.098338,18.074491)">
		<path id="path13972" fill="#44CFC0" d="M0,0c0-0.808-0.649-1.459-1.457-1.459c-0.809,0-1.459,0.651-1.459,1.459
			c0,0.808,0.65,1.457,1.459,1.457C-0.649,1.457,0,0.808,0,0"/>
	</g>
	<g id="g13974" transform="translate(79.482138,21.682391)">
		<path id="path13976" fill="#44CFC0" d="M0,0c0-0.808-0.652-1.458-1.462-1.458c-0.805,0-1.457,0.65-1.457,1.458
			c0,0.803,0.652,1.458,1.457,1.458C-0.652,1.458,0,0.803,0,0"/>
	</g>
	<g id="g13978" transform="translate(75.993838,25.678491)">
		<path id="path13980" fill="#44CFC0" d="M0,0c0-0.609-0.494-1.104-1.104-1.104c-0.615,0-1.107,0.495-1.107,1.104
			c0,0.61,0.492,1.105,1.107,1.105C-0.494,1.105,0,0.61,0,0"/>
	</g>
	<g id="g13982" transform="translate(87.625738,25.678491)">
		<path id="path13984" fill="#44CFC0" d="M0,0c0-0.609-0.495-1.104-1.104-1.104c-0.613,0-1.108,0.495-1.108,1.104
			c0,0.61,0.495,1.105,1.108,1.105C-0.494,1.105,0,0.61,0,0"/>
	</g>
	<g id="g13986" transform="translate(81.752638,21.682391)">
		<path id="path13988" fill="#44CFC0" d="M0,0c0-0.808,0.652-1.458,1.455-1.458c0.809,0,1.464,0.65,1.464,1.458
			c0,0.803-0.655,1.458-1.464,1.458C0.653,1.458,0,0.803,0,0"/>
	</g>
	<g id="g13990" transform="translate(91.131538,28.274191)">
		<path id="path13992" fill="#44CFC0" d="M0,0c0-0.533,0.433-0.966,0.967-0.966C1.5-0.966,1.933-0.533,1.933,0
			c0,0.534-0.433,0.969-0.966,0.969C0.433,0.969,0,0.534,0,0"/>
	</g>
	<g id="g13994" transform="translate(96.765338,26.875791)">
		<path id="path13996" fill="#44CFC0" d="M0,0c0-0.471,0.384-0.856,0.855-0.856C1.326-0.856,1.71-0.471,1.71,0
			S1.326,0.855,0.855,0.855C0.384,0.855,0,0.471,0,0"/>
	</g>
	<g id="g13998" transform="translate(70.810238,28.274191)">
		<path id="path14000" fill="#44CFC0" d="M0,0c0-0.533-0.432-0.966-0.966-0.966C-1.5-0.966-1.934-0.533-1.934,0
			c0,0.534,0.434,0.969,0.967,0.969C-0.432,0.969,0,0.534,0,0"/>
	</g>
	<g id="g14002" transform="translate(65.176538,26.875791)">
		<path id="path14004" fill="#44CFC0" d="M0,0c0-0.471-0.384-0.856-0.858-0.856c-0.468,0-0.854,0.385-0.854,0.856
			s0.386,0.855,0.854,0.855C-0.384,0.855,0,0.471,0,0"/>
	</g>
	<g id="g14006" transform="translate(5.196038,11.728291)">
		<path id="path14008" d="M0,0c0-0.52,0.083-1.023,0.252-1.502c0.172-0.48,0.417-0.903,0.739-1.273
			C1.312-3.144,1.7-3.441,2.154-3.665c0.453-0.223,0.972-0.336,1.554-0.336c0.607,0,1.137,0.124,1.591,0.372
			C5.753-3.381,6.13-3.063,6.427-2.673c0.298,0.388,0.52,0.81,0.672,1.271c0.154,0.463,0.228,0.906,0.228,1.345
			c0,0.436-0.074,0.888-0.228,1.355C6.947,1.766,6.725,2.195,6.427,2.59C6.13,2.983,5.751,3.304,5.291,3.554
			C4.83,3.801,4.293,3.927,3.671,3.927c-0.593,0-1.119-0.117-1.58-0.348C1.63,3.352,1.245,3.047,0.937,2.672
			C0.624,2.297,0.393,1.875,0.235,1.41C0.078,0.939,0,0.47,0,0 M-2.909,2.672c0.182,0.435,0.447,0.903,0.8,1.4
			c0.349,0.494,0.796,0.959,1.337,1.391c0.537,0.429,1.175,0.786,1.908,1.063C1.869,6.804,2.71,6.944,3.654,6.944
			c1.03,0,1.98-0.188,2.856-0.565c0.873-0.375,1.621-0.88,2.254-1.517c0.628-0.634,1.121-1.377,1.472-2.226
			c0.353-0.848,0.527-1.741,0.527-2.675c0-0.931-0.174-1.823-0.527-2.673c-0.351-0.85-0.844-1.59-1.472-2.226
			C8.131-5.573,7.383-6.081,6.51-6.456C5.634-6.833,4.679-7.019,3.636-7.019c-1.056,0-2.018,0.195-2.892,0.581
			c-0.874,0.386-1.618,0.9-2.235,1.536C-2.109-4.266-2.589-3.537-2.93-2.719c-0.339,0.818-0.508,1.658-0.508,2.518
			c0,0.449,0.036,0.914,0.112,1.4C-3.254,1.683-3.117,2.174-2.909,2.672"/>
	</g>
	<g id="g14010" transform="translate(22.375738,7.435391)">
		<path id="path14012" d="M0,0c0.402,0,0.758,0.072,1.067,0.219c0.309,0.147,0.571,0.339,0.789,0.58
			c0.217,0.244,0.387,0.519,0.502,0.829C2.471,1.936,2.53,2.25,2.53,2.563c0,0.305-0.055,0.608-0.165,0.911
			C2.256,3.775,2.097,4.05,1.884,4.299C1.671,4.549,1.408,4.75,1.093,4.91C0.778,5.067,0.413,5.147,0,5.147
			c-0.411,0-0.773-0.08-1.091-0.237C-1.403,4.75-1.669,4.549-1.878,4.299C-2.093,4.05-2.254,3.775-2.361,3.474
			c-0.11-0.303-0.163-0.606-0.163-0.911c0-0.312,0.055-0.627,0.172-0.935c0.115-0.31,0.28-0.585,0.498-0.829
			c0.219-0.241,0.484-0.433,0.793-0.58C-0.753,0.072-0.397,0,0,0 M-5.417,7.62h2.836V6.511h0.019h0.038
			c0.302,0.386,0.71,0.727,1.216,1.017c0.512,0.289,1.153,0.436,1.927,0.436c0.899,0,1.659-0.175,2.283-0.528
			C3.524,7.084,4.034,6.642,4.429,6.1C4.825,5.56,5.108,4.968,5.282,4.32C5.46,3.67,5.548,3.056,5.548,2.473
			c0-0.727-0.121-1.414-0.365-2.053c-0.242-0.643-0.58-1.204-1.019-1.684C3.729-1.743,3.21-2.121,2.612-2.398
			c-0.602-0.28-1.259-0.42-1.972-0.42c-0.462,0-0.86,0.049-1.194,0.146c-0.333,0.098-0.622,0.212-0.87,0.345
			C-1.672-2.193-1.878-2.06-2.035-1.917C-2.192-1.779-2.314-1.66-2.398-1.562v-4.273h-3.019V7.62z"/>
	</g>
	<g id="g14014" transform="translate(35.959738,11.127291)">
		<path id="path14016" d="M0,0c-0.035,0.145-0.101,0.317-0.189,0.518C-0.28,0.72-0.417,0.909-0.601,1.091
			c-0.181,0.18-0.411,0.331-0.69,0.453c-0.278,0.12-0.613,0.181-0.999,0.181c-0.389,0-0.722-0.062-1.004-0.181
			c-0.277-0.122-0.507-0.273-0.69-0.453C-4.164,0.909-4.299,0.72-4.39,0.518C-4.48,0.317-4.544,0.145-4.583,0H0z M2.672-3.001
			C2.43-3.57,2.133-4.07,1.781-4.5C1.43-4.929,1.042-5.293,0.618-5.582c-0.847-0.607-1.805-0.91-2.873-0.91
			c-0.725,0-1.412,0.137-2.054,0.412c-0.642,0.27-1.211,0.65-1.7,1.136c-0.492,0.484-0.88,1.05-1.163,1.698
			C-7.457-2.597-7.6-1.896-7.6-1.147c0,0.705,0.13,1.384,0.391,2.037c0.26,0.655,0.628,1.231,1.099,1.728
			c0.473,0.496,1.033,0.897,1.683,1.198c0.649,0.305,1.356,0.456,2.117,0.456c0.765,0,1.474-0.142,2.13-0.427
			c0.654-0.284,1.217-0.675,1.689-1.171c0.474-0.5,0.841-1.085,1.107-1.758c0.269-0.673,0.403-1.391,0.403-2.154
			c0-0.205-0.006-0.361-0.017-0.463C2.987-1.804,2.969-1.917,2.944-2.036h-7.562c0.097-0.609,0.365-1.078,0.807-1.41
			c0.444-0.334,0.96-0.501,1.556-0.501c0.462,0,0.83,0.093,1.109,0.274c0.279,0.181,0.523,0.405,0.729,0.672H2.672z"/>
	</g>
	<g id="g14018" transform="translate(39.922638,15.054991)">
		<path id="path14020" d="M0,0h2.819v-1.073h0.035c0.075,0.12,0.174,0.264,0.3,0.427c0.13,0.163,0.298,0.317,0.51,0.462
			C3.875-0.039,4.14,0.088,4.456,0.189c0.315,0.105,0.695,0.156,1.145,0.156c0.485,0,0.966-0.086,1.445-0.255
			c0.479-0.169,0.857-0.377,1.139-0.619C8.318-0.65,8.453-0.793,8.592-0.956c0.139-0.165,0.263-0.373,0.374-0.628
			C9.073-1.838,9.164-2.143,9.236-2.5c0.075-0.356,0.112-0.786,0.112-1.283v-6.309H6.327v5.509c0,0.181-0.008,0.392-0.026,0.628
			c-0.019,0.236-0.074,0.464-0.174,0.68c-0.095,0.22-0.248,0.405-0.463,0.556C5.451-2.568,5.147-2.491,4.745-2.491
			c-0.433,0-0.768-0.084-0.998-0.247c-0.231-0.161-0.4-0.356-0.51-0.582c-0.109-0.223-0.172-0.454-0.19-0.691
			C3.028-4.246,3.02-4.444,3.02-4.6v-5.492H0V0z"/>
	</g>
	<g id="g14022" transform="translate(56.675538,14.490091)">
		<path id="path14024" d="M0,0C-0.026,0.108-0.053,0.24-0.084,0.391c-0.027,0.151-0.089,0.298-0.17,0.436
			c-0.088,0.14-0.206,0.255-0.357,0.345C-0.762,1.265-0.973,1.31-1.239,1.31c-0.302,0-0.574-0.097-0.818-0.291
			c-0.244-0.195-0.362-0.45-0.362-0.764c0-0.205,0.029-0.375,0.091-0.51c0.058-0.133,0.19-0.268,0.392-0.409
			c0.198-0.141,0.48-0.297,0.844-0.472C-0.729-1.314-0.243-1.534,0.362-1.8c0.63-0.28,1.147-0.562,1.554-0.855
			c0.406-0.29,0.727-0.592,0.964-0.908c0.238-0.316,0.399-0.646,0.492-0.992c0.091-0.345,0.136-0.711,0.136-1.1
			c0-0.496-0.078-0.991-0.237-1.48c-0.158-0.491-0.417-0.93-0.781-1.32C2.126-8.843,1.643-9.162,1.044-9.41
			c-0.6-0.248-1.343-0.37-2.226-0.37c-0.97,0-1.773,0.141-2.4,0.427C-4.216-9.069-4.71-8.714-5.075-8.292
			C-5.438-7.868-5.69-7.405-5.827-6.91c-0.141,0.498-0.211,0.967-0.211,1.4v0.438h3.419c0-0.388,0.05-0.702,0.153-0.946
			c0.103-0.241,0.232-0.431,0.382-0.565c0.151-0.133,0.306-0.221,0.463-0.262C-1.462-6.887-1.328-6.91-1.219-6.91
			c0.411,0,0.734,0.138,0.965,0.411c0.228,0.272,0.342,0.566,0.342,0.88c0,0.22-0.04,0.405-0.118,0.565
			c-0.079,0.156-0.217,0.303-0.419,0.436c-0.197,0.136-0.468,0.277-0.807,0.427c-0.339,0.151-0.77,0.337-1.289,0.555
			C-2.788-3.541-3.098-3.4-3.466-3.227c-0.37,0.176-0.729,0.414-1.081,0.709C-4.899-2.22-5.201-1.847-5.457-1.4
			c-0.254,0.45-0.379,0.987-0.379,1.619c0,0.63,0.137,1.19,0.418,1.683c0.278,0.49,0.641,0.906,1.091,1.244
			c0.446,0.341,0.95,0.599,1.508,0.772c0.557,0.176,1.12,0.265,1.69,0.265c0.665,0,1.33-0.125,1.989-0.373
			c0.663-0.248,1.21-0.635,1.647-1.156c0.194-0.242,0.348-0.482,0.464-0.719c0.114-0.234,0.205-0.465,0.264-0.69
			c0.06-0.224,0.1-0.438,0.117-0.645C3.372,0.396,3.387,0.194,3.398,0H0z"/>
	</g>
	<g id="g14026" transform="translate(66.385438,7.435391)">
		<path id="path14028" d="M0.001,0c0.395,0,0.753,0.072,1.061,0.219c0.309,0.147,0.573,0.339,0.792,0.58
			C2.07,1.043,2.236,1.318,2.353,1.628C2.467,1.936,2.526,2.25,2.526,2.563c0,0.305-0.056,0.608-0.163,0.911
			C2.252,3.775,2.091,4.05,1.88,4.299C1.669,4.549,1.404,4.75,1.086,4.91c-0.312,0.157-0.68,0.237-1.086,0.237
			c-0.417,0-0.78-0.08-1.095-0.237C-1.407,4.75-1.673,4.549-1.884,4.299C-2.097,4.05-2.256,3.775-2.365,3.474
			C-2.477,3.171-2.53,2.868-2.53,2.563c0-0.312,0.059-0.627,0.175-0.935c0.112-0.31,0.28-0.585,0.498-0.829
			c0.216-0.241,0.483-0.433,0.791-0.58C-0.756,0.072-0.401,0,0.001,0 M-5.421,7.62h2.837V6.511h0.019h0.035
			c0.302,0.386,0.71,0.727,1.218,1.017c0.51,0.289,1.153,0.436,1.927,0.436c0.9,0,1.658-0.175,2.281-0.528
			C3.522,7.084,4.032,6.642,4.423,6.1c0.396-0.541,0.68-1.133,0.859-1.78c0.172-0.65,0.262-1.264,0.262-1.847
			c0-0.727-0.121-1.414-0.363-2.053C4.936-0.223,4.599-0.784,4.163-1.264c-0.438-0.48-0.955-0.858-1.556-1.134
			c-0.598-0.28-1.256-0.42-1.973-0.42c-0.461,0-0.859,0.049-1.195,0.146c-0.33,0.098-0.622,0.212-0.87,0.345
			C-1.678-2.193-1.882-2.06-2.037-1.917c-0.159,0.138-0.28,0.256-0.365,0.355v-4.273h-3.019V7.62z"/>
	</g>
	<g id="g14030" transform="translate(72.894238,15.054991)">
		<path id="path14032" d="M0,0h2.834v-1.073h0.039c0.06,0.12,0.145,0.264,0.254,0.427c0.109,0.163,0.256,0.317,0.446,0.462
			C3.76-0.039,4,0.088,4.3,0.189c0.295,0.105,0.659,0.156,1.098,0.156v-3.038C5.05-2.703,4.727-2.735,4.435-2.782
			C4.145-2.83,3.893-2.923,3.68-3.055C3.467-3.188,3.302-3.376,3.189-3.618C3.075-3.862,3.017-4.171,3.017-4.546v-5.547H0V0z"/>
	</g>
	<path id="path14034" fill="#44CFC0" d="M82.166,4.962h-3.02v10.092h3.02V4.962z"/>
	<g id="g14036" transform="translate(83.618838,15.054991)">
		<path id="path14038" d="M0,0h2.819v-1.073h0.035c0.073,0.12,0.173,0.264,0.302,0.427c0.128,0.163,0.297,0.317,0.509,0.462
			c0.211,0.145,0.475,0.272,0.791,0.373C4.77,0.293,5.151,0.345,5.601,0.345c0.484,0,0.966-0.086,1.445-0.255
			c0.479-0.169,0.859-0.377,1.137-0.619c0.133-0.122,0.27-0.264,0.411-0.427c0.138-0.165,0.261-0.373,0.372-0.628
			c0.109-0.254,0.2-0.559,0.27-0.916c0.075-0.356,0.113-0.786,0.113-1.283v-6.309h-3.02v5.509c0,0.181-0.009,0.392-0.029,0.628
			c-0.017,0.236-0.073,0.464-0.171,0.68c-0.098,0.22-0.252,0.405-0.465,0.556C5.453-2.568,5.147-2.491,4.747-2.491
			c-0.436,0-0.77-0.084-1-0.247C3.518-2.899,3.346-3.094,3.238-3.32C3.129-3.543,3.066-3.774,3.047-4.011
			C3.026-4.246,3.02-4.444,3.02-4.6v-5.492H0V0z"/>
	</g>
	<g id="g14040" transform="translate(94.492938,18.417291)">
		<path id="path14042" d="M0,0h3.018v-7.019h0.038l2.8,3.657h3.58L5.636-7.8l3.691-5.655H5.91L3.056-8.599H3.018v-4.856H0V0z"/>
	</g>
	<path id="path14044" d="M104.402,18.418h3.021V4.962h-3.021V18.418L104.402,18.418z"/>
	<g id="g14046" transform="translate(115.92944,11.127291)">
		<path id="path14048" d="M0,0c-0.037,0.145-0.102,0.317-0.191,0.518c-0.09,0.202-0.226,0.391-0.408,0.573
			c-0.184,0.18-0.415,0.331-0.695,0.453c-0.277,0.12-0.611,0.181-0.998,0.181c-0.388,0-0.723-0.062-1-0.181
			c-0.28-0.122-0.508-0.273-0.691-0.453c-0.18-0.183-0.319-0.372-0.409-0.573C-4.479,0.317-4.547,0.145-4.579,0H0z M2.672-3.001
			C2.43-3.57,2.133-4.07,1.783-4.5C1.431-4.929,1.042-5.293,0.617-5.582c-0.848-0.607-1.805-0.91-2.872-0.91
			c-0.728,0-1.412,0.137-2.055,0.412c-0.642,0.27-1.209,0.65-1.702,1.136c-0.488,0.484-0.878,1.05-1.163,1.698
			C-7.459-2.597-7.6-1.896-7.6-1.147c0,0.705,0.128,1.384,0.391,2.037c0.26,0.655,0.625,1.231,1.099,1.728
			c0.473,0.496,1.035,0.897,1.683,1.198c0.649,0.305,1.354,0.456,2.117,0.456c0.765,0,1.474-0.142,2.127-0.427
			c0.653-0.284,1.217-0.675,1.691-1.171c0.473-0.5,0.843-1.085,1.11-1.758c0.265-0.673,0.4-1.391,0.4-2.154
			C3.019-1.442,3.013-1.598,3-1.7c-0.013-0.104-0.03-0.217-0.055-0.336h-7.562c0.096-0.609,0.364-1.078,0.808-1.41
			c0.444-0.334,0.96-0.501,1.555-0.501c0.459,0,0.83,0.093,1.109,0.274c0.28,0.181,0.522,0.405,0.729,0.672H2.672z"/>
	</g>
	<g id="g14050" transform="translate(119.87574,15.054991)">
		<path id="path14052" d="M0,0h2.836v-1.073h0.037c0.061,0.12,0.145,0.264,0.252,0.427c0.11,0.163,0.261,0.317,0.448,0.462
			c0.188,0.145,0.43,0.272,0.728,0.373c0.296,0.105,0.663,0.156,1.098,0.156v-3.038C5.047-2.703,4.727-2.735,4.437-2.782
			C4.145-2.83,3.895-2.923,3.681-3.055C3.47-3.188,3.307-3.376,3.191-3.618C3.077-3.862,3.018-4.171,3.018-4.546v-5.547H0V0z"/>
	</g>
</g>
</svg>
