<?xml version="1.0" encoding="UTF-8"?>
<!-- Generator: Adobe Illustrator 16.0.4, SVG Export Plug-In . SVG Version: 6.00 Build 0)  -->
<!DOCTYPE svg PUBLIC "-//W3C//DTD SVG 1.1//EN" "http://www.w3.org/Graphics/SVG/1.1/DTD/svg11.dtd">
<svg version="1.1" id="Layer_1" xmlns="http://www.w3.org/2000/svg" xmlns:xlink="http://www.w3.org/1999/xlink" x="0px" y="0px" width="145px" height="145px" viewBox="0 0 145 145" enable-background="new 0 0 145 145" xml:space="preserve">
<polygon fill="#FF5C00" points="48.113,45.892 66.37,84.885 72.13,72.583 59.684,45.892 "/>
<polygon fill="#FF5C00" points="100.369,45.892 84.627,45.892 63.903,45.892 75.902,71.625 82.111,84.885 "/>
<rect x="7.675" y="45.892" fill="#FF0000" width="36.419" height="10.194"/>
<rect x="7.675" y="59.804" fill="#FF0000" width="36.419" height="22.183"/>
<g>
	<defs>
		<rect id="SVGID_1_" x="-2.518" y="35.699" width="150.518" height="71.534"/>
	</defs>
	<clipPath id="SVGID_2_">
		<use xlink:href="#SVGID_1_" overflow="visible"/>
	</clipPath>
	<path clip-path="url(#SVGID_2_)" fill="#FFB100" d="M137.513,65.959c-0.942,10.018-9.374,17.858-19.635,17.858   c-10.892,0-19.72-8.834-19.72-19.73c0-10.897,8.828-19.731,19.72-19.731c10.233,0,18.647,7.799,19.627,17.78h-19.618   c-1.056,0-1.912,0.855-1.912,1.912c0,1.055,0.856,1.912,1.912,1.912H137.513z"/>
</g>
</svg>
